# xmcd CD database file
#
# Track frame offsets:
#	182
#	23140
#	47020
#	72697
#	103222
#	131090
#	152392
#	180445
#	216435
#	237555
#	265690
#	283802
#
# Disc length: 4144 seconds
#
# Revision: 2
# Processed by: cddbd v1.5.2PL0 Copyright (c) Steve Scherf et al.
# Submitted via: CDex 1.51
#
DISCID=b4102e0c
DTITLE=Dick Heckstall-Smith and friends - Blues and Beyond
DYEAR=2001
DGENRE=Blues
TTITLE0=Rollin' And Tumblin'
TTITLE1=Millenium Blues
TTITLE2=Watching Your Every Move
TTITLE3=Cruel Contradictions
TTITLE4=Angie Baby
TTITLE5=Grind, Glitch And Snit
TTITLE6=Spooky But Nice
TTITLE7=Hidden Agenda
TTITLE8=Twilight Shuffle
TTITLE9=(Dix WWW) Swamp
TTITLE10=Big Deal
TTITLE11=If You Know You Don't Love Me Why In The World Don't You Leave Me Be?
EXTD=Feat. Jack Bruce, John Mayall, Peter Green, Mick Taylor,\r\nJon Hiseman, Paul Jones, Pete Brown, Clem Clempson,\r\nGary Husband, Paul Williams, Rab McCullough YEAR: 2001
EXTT0=
EXTT1=
EXTT2=
EXTT3=
EXTT4=
EXTT5=
EXTT6=
EXTT7=
EXTT8=
EXTT9=
EXTT10=
EXTT11=
PLAYORDER=
